<svg xmlns="http://www.w3.org/2000/svg" width="1040" height="380" viewBox="55 90 1040 380" role="img" aria-labelledby="title desc">
  <title id="title">pi-fusion planning flow</title>
  <desc id="desc">A prompt flows into optional discovery and rewrite steps, then read-only workers, then one pi actor turn.</desc>
  <defs>
    <marker id="arrow" markerWidth="9" markerHeight="9" refX="7" refY="3" orient="auto" markerUnits="strokeWidth">
      <path d="M0,0 L0,6 L8,3 z" fill="#8b8fa3" />
    </marker>
    <style>
      text { font-family: ui-sans-serif, -apple-system, "Segoe UI", Arial, sans-serif; }
      .label { font-size: 21px; font-weight: 650; fill: #e8eaed; }
      .small { font-size: 14px; font-weight: 500; fill: #9aa0aa; }
      .node { fill: #14161d; stroke: #2a2e3a; stroke-width: 1.5; }
      .prep { stroke: #a78bfa; }
      .worker { stroke: #5b6477; }
      .actor { stroke: #a78bfa; stroke-width: 2; }
      .line { fill: none; stroke: #5b6477; stroke-width: 2; marker-end: url(#arrow); }
      .line-faint { fill: none; stroke: #3a3f4d; stroke-width: 2; marker-end: url(#arrow); }
    </style>
  </defs>

  <rect x="70" y="230" width="155" height="92" rx="12" class="node" />
  <text x="98" y="270" class="label">Prompt</text>
  <text x="98" y="296" class="small">your real ask</text>

  <rect x="300" y="160" width="185" height="92" rx="12" class="node prep" />
  <text x="330" y="194" class="label">Discovery</text>
  <text x="330" y="220" class="small">read / grep / find / ls</text>

  <rect x="300" y="310" width="185" height="92" rx="12" class="node prep" />
  <text x="330" y="344" class="label">Rewrite</text>
  <text x="330" y="370" class="small">prompt angles</text>

  <rect x="575" y="105" width="180" height="78" rx="12" class="node worker" />
  <text x="620" y="140" class="label">Worker #1</text>
  <text x="620" y="163" class="small">read-only plan</text>

  <rect x="575" y="240" width="180" height="78" rx="12" class="node worker" />
  <text x="620" y="275" class="label">Worker #2</text>
  <text x="620" y="298" class="small">read-only plan</text>

  <rect x="575" y="375" width="180" height="78" rx="12" class="node worker" />
  <text x="620" y="410" class="label">Worker #3</text>
  <text x="620" y="433" class="small">read-only plan</text>

  <rect x="875" y="230" width="210" height="92" rx="12" class="node actor" />
  <text x="918" y="270" class="label">pi actor</text>
  <text x="918" y="296" class="small">synthesizes + acts</text>

  <path d="M225 266 C260 236, 270 216, 300 206" class="line" />
  <path d="M225 286 C260 316, 270 346, 300 356" class="line" />
  <path d="M485 206 C525 160, 540 146, 575 144" class="line" />
  <path d="M485 206 C535 226, 545 260, 575 270" class="line" />
  <path d="M485 206 C525 300, 540 400, 575 414" class="line-faint" />
  <path d="M485 356 C530 330, 545 290, 575 279" class="line" />
  <path d="M485 356 C525 250, 540 160, 575 144" class="line-faint" />
  <path d="M485 356 C530 382, 545 404, 575 414" class="line" />
  <path d="M755 144 C820 160, 845 224, 875 256" class="line" />
  <path d="M755 279 C810 279, 835 279, 875 279" class="line" />
  <path d="M755 414 C820 398, 845 332, 875 304" class="line" />
</svg>
