<svg xmlns="http://www.w3.org/2000/svg" width="1200" height="560" viewBox="0 0 1200 560" role="img" aria-labelledby="title desc">
  <title id="title">pi-fusion planning flow</title>
  <desc id="desc">A user prompt flows into discovery and rewrite steps, then three workers, then the normal pi actor.</desc>
  <defs>
    <linearGradient id="bg" x1="0" x2="1" y1="0" y2="1">
      <stop offset="0%" stop-color="#111827"/>
      <stop offset="58%" stop-color="#1e1b4b"/>
      <stop offset="100%" stop-color="#0f172a"/>
    </linearGradient>
    <linearGradient id="card" x1="0" x2="1" y1="0" y2="1">
      <stop offset="0%" stop-color="#1f2937"/>
      <stop offset="100%" stop-color="#111827"/>
    </linearGradient>
    <filter id="shadow" x="-20%" y="-20%" width="140%" height="140%">
      <feDropShadow dx="0" dy="12" stdDeviation="16" flood-color="#000000" flood-opacity="0.35"/>
    </filter>
    <marker id="arrow" markerWidth="10" markerHeight="10" refX="8" refY="3" orient="auto" markerUnits="strokeWidth">
      <path d="M0,0 L0,6 L9,3 z" fill="#a78bfa"/>
    </marker>
    <style>
      text { font-family: Arial, Helvetica, sans-serif; }
      .title { font-size: 38px; font-weight: 700; fill: #f8fafc; }
      .subtitle { font-size: 18px; font-weight: 500; fill: #cbd5e1; }
      .label { font-size: 22px; font-weight: 700; fill: #f8fafc; }
      .small { font-size: 15px; font-weight: 500; fill: #cbd5e1; }
      .tiny { font-size: 13px; font-weight: 500; fill: #94a3b8; }
      .box { fill: url(#card); stroke: #7c3aed; stroke-width: 2; filter: url(#shadow); }
      .worker { fill: #172554; stroke: #38bdf8; stroke-width: 2; filter: url(#shadow); }
      .actor { fill: #064e3b; stroke: #34d399; stroke-width: 2; filter: url(#shadow); }
      .line { fill: none; stroke: #a78bfa; stroke-width: 3; marker-end: url(#arrow); opacity: 0.95; }
    </style>
  </defs>
  <rect width="1200" height="560" rx="34" fill="url(#bg)"/>
  <circle cx="1030" cy="92" r="150" fill="#7c3aed" opacity="0.20"/>
  <circle cx="180" cy="500" r="180" fill="#38bdf8" opacity="0.12"/>
  <text x="70" y="82" class="title">pi-fusion</text>
  <text x="70" y="116" class="subtitle">read-only planners first; one normal pi actor after</text>

  <rect x="70" y="230" width="155" height="92" rx="18" class="box"/>
  <text x="98" y="270" class="label">Prompt</text>
  <text x="98" y="296" class="small">your real ask</text>

  <rect x="300" y="160" width="185" height="92" rx="18" class="box"/>
  <text x="330" y="199" class="label">Discovery</text>
  <text x="330" y="226" class="small">read / grep / find / ls</text>

  <rect x="300" y="310" width="185" height="92" rx="18" class="box"/>
  <text x="330" y="349" class="label">Rewrite</text>
  <text x="330" y="376" class="small">prompt angles</text>

  <rect x="575" y="105" width="180" height="78" rx="16" class="worker"/>
  <text x="620" y="143" class="label">Worker #1</text>
  <text x="620" y="166" class="tiny">read-only plan</text>

  <rect x="575" y="240" width="180" height="78" rx="16" class="worker"/>
  <text x="620" y="278" class="label">Worker #2</text>
  <text x="620" y="301" class="tiny">read-only plan</text>

  <rect x="575" y="375" width="180" height="78" rx="16" class="worker"/>
  <text x="620" y="413" class="label">Worker #3</text>
  <text x="620" y="436" class="tiny">read-only plan</text>

  <rect x="875" y="230" width="210" height="92" rx="18" class="actor"/>
  <text x="918" y="270" class="label">pi actor</text>
  <text x="918" y="296" class="small">synthesizes + acts</text>

  <path d="M225 266 C260 236, 270 216, 300 206" class="line"/>
  <path d="M225 286 C260 316, 270 346, 300 356" class="line"/>
  <path d="M485 206 C525 160, 540 146, 575 144" class="line"/>
  <path d="M485 206 C535 226, 545 260, 575 270" class="line"/>
  <path d="M485 206 C525 300, 540 400, 575 414" class="line" opacity="0.55"/>
  <path d="M485 356 C530 330, 545 290, 575 279" class="line"/>
  <path d="M485 356 C525 250, 540 160, 575 144" class="line" opacity="0.55"/>
  <path d="M485 356 C530 382, 545 404, 575 414" class="line"/>
  <path d="M755 144 C820 160, 845 224, 875 256" class="line"/>
  <path d="M755 279 C810 279, 835 279, 875 279" class="line"/>
  <path d="M755 414 C820 398, 845 332, 875 304" class="line"/>
</svg>
