<svg xmlns="http://www.w3.org/2000/svg" width="1280" height="640" viewBox="0 0 1280 640" role="img" aria-labelledby="title desc">
  <title id="title">pi-fusion</title>
  <desc id="desc">Several models run in parallel, then one synthesizes the answer.</desc>
  <style>
    text { font-family: 'Inter', system-ui, -apple-system, 'Segoe UI', sans-serif; }
    .mono { font-family: ui-monospace, SFMono-Regular, Menlo, Monaco, Consolas, monospace; }
    .kicker { font-size: 22px; font-weight: 600; fill: #6E7268; letter-spacing: 4px; }
    .title { font-size: 116px; font-weight: 800; fill: #16301F; letter-spacing: -3px; }
    .sub { font-size: 33px; font-weight: 600; fill: #6E7268; }
    .small { font-size: 23px; font-weight: 500; fill: #8B8F86; }
    .blockTitle { fill: #EEF3EA; font-weight: 700; }
    .blockSub { fill: rgba(238,243,234,0.72); font-size: 16px; font-weight: 500; }
    .outlineTitle { fill: #0E481F; font-weight: 700; }
    .outlineSub { fill: #6E7268; font-size: 16px; font-weight: 500; }
    .pillText { fill: #16301F; font-size: 22px; font-weight: 600; }
    .edge { fill: none; stroke: #0E481F; stroke-width: 2.5; stroke-linecap: round; opacity: 0.9; }
    .edgeFaint { fill: none; stroke: #0E481F; stroke-width: 1.6; stroke-linecap: round; opacity: 0.32; }
    .wordmark { fill: #6E7268; font-size: 24px; font-weight: 600; letter-spacing: 0.3px; }
  </style>

  <rect width="1280" height="640" fill="#ECEBE6"/>

  <!-- left: headline -->
  <text x="88" y="214" class="kicker mono">COMPOUND AI · FOR PI</text>
  <text x="84" y="320" class="title">pi-fusion</text>
  <text x="90" y="384" class="sub">several models, in parallel</text>
  <text x="90" y="430" class="small">one synthesized answer</text>

  <!-- right: fan-out diagram -->
  <!-- prompt -> discovery / rewrite -->
  <path class="edge" d="M1000 168 C1000 214, 858 214, 858 260"/>
  <path class="edge" d="M1000 168 C1000 214, 1142 214, 1142 260"/>
  <!-- discovery / rewrite -> workers (faint fanout) -->
  <path class="edgeFaint" d="M858 332 C858 372, 838 372, 838 412"/>
  <path class="edgeFaint" d="M858 332 C858 372, 1000 372, 1000 412"/>
  <path class="edgeFaint" d="M858 332 C858 372, 1162 372, 1162 412"/>
  <path class="edgeFaint" d="M1142 332 C1142 372, 838 372, 838 412"/>
  <path class="edgeFaint" d="M1142 332 C1142 372, 1000 372, 1000 412"/>
  <path class="edgeFaint" d="M1142 332 C1142 372, 1162 372, 1162 412"/>
  <!-- workers -> synthesis -->
  <path class="edge" d="M838 506 C838 540, 940 540, 940 540"/>
  <path class="edge" d="M1000 506 C1000 540, 1000 540, 1000 540"/>
  <path class="edge" d="M1162 506 C1162 540, 1060 540, 1060 540"/>
  <!-- discovery -> synthesis (context passed straight through, routed around the workers) -->
  <path class="edge" d="M772 332 C668 412, 668 502, 762 560"/>

  <!-- prompt pill -->
  <rect x="888" y="104" width="224" height="64" rx="32" fill="#E3E2DC" stroke="#C7C7C0" stroke-width="2"/>
  <text x="1000" y="144" text-anchor="middle" class="pillText">Your prompt</text>

  <!-- discovery (light green outline) -->
  <rect x="728" y="260" width="260" height="72" rx="12" fill="rgba(14,72,31,0.09)" stroke="#0E481F" stroke-width="2.5"/>
  <text x="858" y="298" text-anchor="middle" class="outlineTitle" font-size="26">Discovery<tspan font-size="17" dy="-9">*</tspan></text>
  <text x="858" y="320" text-anchor="middle" class="outlineSub">loads context once</text>

  <!-- rewrite (outline) -->
  <rect x="1012" y="260" width="260" height="72" rx="12" fill="rgba(14,72,31,0.09)" stroke="#0E481F" stroke-width="2.5"/>
  <text x="1142" y="298" text-anchor="middle" class="outlineTitle" font-size="26">Prompt rewrite<tspan font-size="17" dy="-9">*</tspan></text>
  <text x="1142" y="320" text-anchor="middle" class="outlineSub">varies the angle</text>

  <!-- workers -->
  <rect x="763" y="412" width="150" height="94" rx="12" fill="#0E481F"/>
  <text x="838" y="454" text-anchor="middle" class="blockTitle" font-size="24">Worker</text>
  <text x="838" y="478" text-anchor="middle" class="blockSub">angle 1</text>

  <rect x="925" y="412" width="150" height="94" rx="12" fill="#0E481F"/>
  <text x="1000" y="454" text-anchor="middle" class="blockTitle" font-size="24">Worker</text>
  <text x="1000" y="478" text-anchor="middle" class="blockSub">angle 2</text>

  <rect x="1087" y="412" width="150" height="94" rx="12" fill="#0E481F"/>
  <text x="1162" y="454" text-anchor="middle" class="blockTitle" font-size="24">Worker</text>
  <text x="1162" y="478" text-anchor="middle" class="blockSub">angle 3</text>

  <!-- synthesis -->
  <rect x="760" y="540" width="480" height="60" rx="12" fill="#0E481F"/>
  <text x="1000" y="578" text-anchor="middle" class="blockTitle" font-size="26">Synthesis · one final answer</text>

  <!-- footnote -->
  <text x="1000" y="626" text-anchor="middle" font-size="18" font-weight="500" fill="#8B8F86">* Optional step</text>

  <!-- logo bottom-left -->
  <circle cx="100" cy="556" r="22" fill="none" stroke="#0E481F" stroke-width="4.5"/>
  <text x="100" y="566" text-anchor="middle" class="mono" font-size="34" font-weight="700" fill="#0E481F">∪</text>
  <text x="134" y="565" class="wordmark mono">pi-fusion</text>
</svg>
