<svg xmlns="http://www.w3.org/2000/svg" width="1280" height="640" viewBox="0 0 1280 640" role="img" aria-labelledby="title desc">
  <title id="title">pi-fusion</title>
  <desc id="desc">Multiple model calls merge into one response.</desc>
  <defs>
    <linearGradient id="bg" x1="0" x2="1" y1="0" y2="1">
      <stop offset="0" stop-color="#050816"/>
      <stop offset="0.54" stop-color="#20124d"/>
      <stop offset="1" stop-color="#06121f"/>
    </linearGradient>
    <radialGradient id="glow" cx="52%" cy="48%" r="62%">
      <stop offset="0" stop-color="#7c3aed" stop-opacity="0.42"/>
      <stop offset="1" stop-color="#7c3aed" stop-opacity="0"/>
    </radialGradient>
    <linearGradient id="finalGradient" x1="0" x2="1" y1="0" y2="1">
      <stop offset="0" stop-color="#6ee7b7"/>
      <stop offset="1" stop-color="#67e8f9"/>
    </linearGradient>
    <filter id="shadow" x="-20%" y="-20%" width="140%" height="140%">
      <feDropShadow dx="0" dy="20" stdDeviation="22" flood-color="#000" flood-opacity="0.42"/>
    </filter>
    <marker id="arrow" markerWidth="6" markerHeight="6" refX="5" refY="2" orient="auto" markerUnits="strokeWidth">
      <path d="M0,0 L0,4 L5.5,2 z" fill="#93c5fd"/>
    </marker>
    <style>
      @font-face {
        font-family: 'Space Mono';
        font-style: normal;
        font-weight: 700;
        src: url('fonts/space-mono-700.ttf') format('truetype');
      }
      text { font-family: -apple-system, BlinkMacSystemFont, 'Helvetica Neue', Helvetica, Arial, sans-serif; }
      .kicker { font-size: 25px; font-weight: 800; fill: #c4b5fd; letter-spacing: 3px; }
      .title { font-family: 'Space Mono', Menlo, Monaco, Consolas, monospace; font-size: 104px; font-weight: 700; fill: #ffffff; }
      .sub { font-size: 35px; font-weight: 700; fill: #dbeafe; }
      .small { font-size: 24px; font-weight: 650; fill: #cbd5e1; }
      .model { fill: #111827; stroke: #a78bfa; stroke-width: 3; filter: url(#shadow); }
      .modelText { font-size: 27px; font-weight: 800; fill: #f8fafc; }
      .fusion { fill: #312e81; stroke: #c4b5fd; stroke-width: 3; filter: url(#shadow); }
      .fusionText { font-size: 32px; font-weight: 800; fill: #f8fafc; }
      .finalBox { fill: url(#finalGradient); filter: url(#shadow); }
      .finalText { font-size: 39px; font-weight: 800; fill: #062033; }
      .finalSub { font-size: 22px; font-weight: 750; fill: #075069; }
      .logoCircle { fill: none; stroke: #c4b5fd; stroke-width: 7; filter: url(#shadow); }
      .logoText { font-size: 76px; font-weight: 800; fill: #f8fafc; }
      .line { fill: none; stroke: #38bdf8; stroke-width: 5; stroke-linecap: round; marker-end: url(#arrow); opacity: 0.95; }
      .finalLine { fill: none; stroke: #c4b5fd; stroke-width: 6; stroke-linecap: round; marker-end: url(#arrow); opacity: 0.95; }
    </style>
  </defs>

  <rect width="1280" height="640" fill="url(#bg)"/>
  <rect width="1280" height="640" fill="url(#glow)"/>
  <circle cx="1125" cy="96" r="220" fill="#38bdf8" opacity="0.10"/>
  <circle cx="80" cy="610" r="245" fill="#8b5cf6" opacity="0.20"/>

  <circle cx="1120" cy="132" r="58" class="logoCircle"/>
  <text x="1120" y="157" text-anchor="middle" class="logoText">∪</text>

  <text x="78" y="112" class="kicker">COMPOUND AI FOR PI</text>
  <text x="74" y="236" class="title">pi-fusion</text>
  <text x="82" y="296" class="sub">multiple model calls → one response</text>
  <text x="84" y="354" class="small">many heads are better than one</text>

  <rect x="106" y="448" width="190" height="78" rx="20" class="model"/>
  <text x="145" y="496" class="modelText">model #1</text>

  <rect x="365" y="382" width="190" height="78" rx="20" class="model"/>
  <text x="404" y="430" class="modelText">model #2</text>

  <rect x="365" y="514" width="190" height="78" rx="20" class="model"/>
  <text x="404" y="562" class="modelText">model #3</text>

  <circle cx="805" cy="487" r="58" class="fusion"/>
  <text x="763" y="499" class="fusionText">fusion</text>

  <path d="M296 487 C435 487, 610 487, 744 487" class="line"/>
  <path d="M555 421 C635 431, 696 462, 749 480" class="line"/>
  <path d="M555 553 C635 542, 696 512, 749 494" class="line"/>

  <path d="M863 487 C892 487, 910 487, 936 487" class="finalLine"/>

  <rect x="948" y="412" width="260" height="150" rx="34" fill="#67e8f9" filter="url(#shadow)"/>
  <text x="1007" y="475" fill="#062033" class="finalText">single</text>
  <text x="983" y="519" fill="#062033" class="finalText">response</text>
  <text x="1001" y="547" fill="#075069" class="finalSub">one actor turn</text>
</svg>
