<svg xmlns="http://www.w3.org/2000/svg" width="1280" height="640" viewBox="0 0 1280 640" role="img" aria-labelledby="title desc">
  <title id="title">pi-fusion</title>
  <desc id="desc">Multiple model calls merge into one response.</desc>
  <defs>
    <linearGradient id="bg" x1="0" x2="1" y1="0" y2="1">
      <stop offset="0" stop-color="#050816"/>
      <stop offset="0.54" stop-color="#20124d"/>
      <stop offset="1" stop-color="#06121f"/>
    </linearGradient>
    <radialGradient id="glow" cx="52%" cy="48%" r="62%">
      <stop offset="0" stop-color="#7c3aed" stop-opacity="0.42"/>
      <stop offset="1" stop-color="#7c3aed" stop-opacity="0"/>
    </radialGradient>
    <linearGradient id="finalGradient" x1="0" x2="1" y1="0" y2="1">
      <stop offset="0" stop-color="#6ee7b7"/>
      <stop offset="1" stop-color="#67e8f9"/>
    </linearGradient>
    <filter id="shadow" x="-20%" y="-20%" width="140%" height="140%">
      <feDropShadow dx="0" dy="20" stdDeviation="22" flood-color="#000" flood-opacity="0.42"/>
    </filter>
    <marker id="arrow" markerWidth="12" markerHeight="12" refX="10" refY="4" orient="auto" markerUnits="strokeWidth">
      <path d="M0,0 L0,8 L11,4 z" fill="#93c5fd"/>
    </marker>
    <style>
      text { font-family: Arial, Helvetica, sans-serif; }
      .kicker { font-size: 25px; font-weight: 800; fill: #c4b5fd; letter-spacing: 3px; }
      .title { font-size: 104px; font-weight: 850; fill: #ffffff; }
      .sub { font-size: 35px; font-weight: 700; fill: #dbeafe; }
      .small { font-size: 24px; font-weight: 650; fill: #cbd5e1; }
      .model { fill: #111827; stroke: #a78bfa; stroke-width: 3; filter: url(#shadow); }
      .modelText { font-size: 30px; font-weight: 850; fill: #f8fafc; }
      .modelSub { font-size: 17px; font-weight: 650; fill: #cbd5e1; }
      .merge { fill: #312e81; stroke: #c4b5fd; stroke-width: 3; filter: url(#shadow); }
      .mergeText { font-size: 33px; font-weight: 850; fill: #f8fafc; }
      .finalBox { fill: url(#finalGradient); filter: url(#shadow); }
      .finalText { font-size: 39px; font-weight: 850; fill: #062033; }
      .finalSub { font-size: 22px; font-weight: 750; fill: #075069; }
      .line { fill: none; stroke: #38bdf8; stroke-width: 5; stroke-linecap: round; marker-end: url(#arrow); opacity: 0.95; }
      .finalLine { fill: none; stroke: #c4b5fd; stroke-width: 6; stroke-linecap: round; marker-end: url(#arrow); opacity: 0.95; }
    </style>
  </defs>

  <rect width="1280" height="640" fill="url(#bg)"/>
  <rect width="1280" height="640" fill="url(#glow)"/>
  <circle cx="1125" cy="96" r="220" fill="#38bdf8" opacity="0.10"/>
  <circle cx="80" cy="610" r="245" fill="#8b5cf6" opacity="0.20"/>

  <text x="78" y="112" class="kicker">COMPOUND AI FOR PI</text>
  <text x="74" y="236" class="title">pi-fusion</text>
  <text x="82" y="296" class="sub">multiple model calls → one response</text>
  <text x="84" y="354" class="small">parallel planners merge before the actor turn</text>

  <rect x="98" y="443" width="158" height="78" rx="20" class="model"/>
  <text x="139" y="479" class="modelText">#1</text>
  <text x="125" y="505" class="modelSub">planner</text>

  <rect x="325" y="382" width="158" height="78" rx="20" class="model"/>
  <text x="366" y="418" class="modelText">#2</text>
  <text x="352" y="444" class="modelSub">planner</text>

  <rect x="325" y="512" width="158" height="78" rx="20" class="model"/>
  <text x="366" y="548" class="modelText">#3</text>
  <text x="352" y="574" class="modelSub">planner</text>

  <rect x="552" y="443" width="158" height="78" rx="20" class="model"/>
  <text x="593" y="479" class="modelText">#4</text>
  <text x="579" y="505" class="modelSub">planner</text>

  <circle cx="805" cy="482" r="58" class="merge"/>
  <text x="760" y="494" class="mergeText">merge</text>

  <path d="M256 482 C410 482, 605 482, 744 482" class="line"/>
  <path d="M483 421 C590 426, 675 454, 748 475" class="line"/>
  <path d="M483 551 C590 538, 675 510, 748 489" class="line"/>
  <path d="M710 482 C724 482, 735 482, 744 482" class="line"/>

  <path d="M863 482 C892 482, 910 482, 936 482" class="finalLine"/>

  <rect x="948" y="407" width="260" height="150" rx="34" fill="#67e8f9" filter="url(#shadow)"/>
  <text x="1007" y="470" fill="#062033" class="finalText">single</text>
  <text x="983" y="514" fill="#062033" class="finalText">response</text>
  <text x="1001" y="542" fill="#075069" class="finalSub">one actor turn</text>
</svg>
